<svg xmlns="http://www.w3.org/2000/svg" viewBox="0 0 114.137 25" data-arp-injected="true">
  <defs>
    <style>
      .cls-1, .cls-4 {
      fill: #fff;
      }

      .cls-1 {
      opacity: 0.6;
      }

      .cls-2 {
      fill: #e02f26;
      }

      .cls-3 {
      fill: #ffcac7;
      }

      .cls-4 {
      opacity: 0.8;
      }

      .cls-5 {
      fill: #accad4;
      }

      .cls-6 {
      fill: #657983;
      }

      .cls-7 {
      fill: #221f1f;
      }
    </style>
  </defs>
  <g id="Symbol_4_3" transform="translate(-50 -11)">
    <rect id="Rectangle_3" class="cls-1" width="8.57" height="25" transform="translate(78.029 11)"/>
    <path id="Path_4" class="cls-2" d="M19.814,8.843h8.215V0H18.068L14,7.888,9.907,0H0V25H28.029V16.13H19.814Z" transform="translate(50 11)"/>
    <rect id="Rectangle_4" class="cls-3" width="8.215" height="7.287" transform="translate(69.814 19.843)"/>
    <rect id="Rectangle_5" class="cls-4" width="8.57" height="7.287" transform="translate(78.029 19.843)"/>
    <rect id="Rectangle_6" class="cls-5" width="8.215" height="7.287" transform="translate(86.599 19.843)"/>
    <g id="Group_1" transform="translate(86.599 11)">
      <path id="Path_5" class="cls-6" d="M150.394,12.391v-.136A5.82,5.82,0,0,0,155.47,6.5c0-2.32-1.419-6.5-9.252-6.5H134.1V8.843h8.215V16.13H134.1v8.843h11.627c3.166,0,10.317-.355,10.317-6.687C156.043,14.383,152.9,12.746,150.394,12.391Z" transform="translate(-134.1 0)"/>
    </g>
    <path id="Path_6" class="cls-7" d="M248.354.2h-2.129l-2.757,6.714-.437,1.064a4.5,4.5,0,0,1-.218.519l-.109.273-.109-.246-.218-.546-.437-1.064L239.211.2H237V10.68h1.419V1.919l.136.328,3.521,8.433h1.337l3.521-8.543.136-.328v8.87h1.419V.2Z" transform="translate(-122.317 10.855)"/>
    <path id="Path_7" class="cls-7" d="M344.06.91A3.306,3.306,0,0,0,341.6.2h-4.8V10.68h1.419V6.668h3.275a3.58,3.58,0,0,0,2.538-.682,3.513,3.513,0,0,0,.682-2.484A3.9,3.9,0,0,0,344.06.91Zm-5.868.519H341.6c.792,0,1.283.136,1.446.355a3.511,3.511,0,0,1,.3,1.8c0,.819-.164,1.337-.437,1.5a4.474,4.474,0,0,1-2.129.328h-2.593Z" transform="translate(-194.879 10.855)"/>
    <path id="Path_8" class="cls-7" d="M298.687.2l-5.595,9.116V.2H291.7V10.68h1.992l5.622-9.007V10.68h1.392V.2Z" transform="translate(-162.088 10.855)"/>
    <g id="Group_2" transform="translate(114.683 25.356)">
      <path id="Path_9" class="cls-7" d="M237.109,63.108v-.136h0v.136H237V52.6h4.64a4.05,4.05,0,0,1,2.538.546h0a3.074,3.074,0,0,1,.628,2.293h0a2.142,2.142,0,0,1-1.092,2.129h0A2.3,2.3,0,0,1,245.106,60h0a3.383,3.383,0,0,1-.682,2.374h0a3.111,3.111,0,0,1-2.32.71h-4.995Zm3.6-1.255h1.037a2.857,2.857,0,0,0,1.638-.3h0c.218-.164.355-.628.355-1.337h0c0-.9-.164-1.447-.355-1.583h0a4.562,4.562,0,0,0-2.156-.273h-2.838v3.521l2.32-.027Zm.6-4.749a3.166,3.166,0,0,0,1.774-.328h0c.218-.164.382-.655.355-1.447h0c0-.682-.136-1.092-.328-1.228h0a2.728,2.728,0,0,0-1.5-.273h-3.22v3.248h2.92Z" transform="translate(-237 -52.6)"/>
    </g>
    <g id="Group_3" transform="translate(125.437 25.356)">
      <path id="Path_10" class="cls-7" d="M276.536,63.108v-.136h0v.136H276.4V52.6h4.8a3.306,3.306,0,0,1,2.456.71h0a3.8,3.8,0,0,1,.655,2.593h0a3.38,3.38,0,0,1-.71,2.484h0a3.672,3.672,0,0,1-2.538.682h-3.275v4.039Zm3.9-5.267a4.556,4.556,0,0,0,2.129-.328h0c.273-.191.437-.682.437-1.5h0a3.3,3.3,0,0,0-.3-1.8h0a2.1,2.1,0,0,0-1.446-.355h-3.412V57.84Z" transform="translate(-276.4 -52.6)"/>
    </g>
    <path id="Path_11" class="cls-7" d="M313.95,52.6h-1.8L308.3,63.08h1.5l.791-2.156h4.995l.791,2.156h1.5Zm1.2,7.205h-4.121l2.047-5.731Z" transform="translate(-174.157 -27.244)"/>
    <path id="Path_12" class="cls-7" d="M388.75,52.6h-1.8L383.1,63.08h1.5l.791-2.156h4.995l.792,2.156h1.5Zm1.2,7.205h-4.121l2.047-5.731Z" transform="translate(-228.542 -27.244)"/>
    <path id="Path_13" class="cls-7" d="M352.55,52.6v4.476a17.6,17.6,0,0,1-2.675.164,3.851,3.851,0,0,1-1.91-.273c-.382-.246-.573-.682-.573-1.638V52.6H346v2.511a3.645,3.645,0,0,0,.737,2.7,4.182,4.182,0,0,0,2.866.682,18.02,18.02,0,0,0,2.948-.191V63.08h1.392V52.6Z" transform="translate(-201.568 -27.244)"/>
    <rect id="Rectangle_7" class="cls-3" width="8.57" height="8.843" transform="translate(78.029 11)"/>
    <rect id="Rectangle_8" class="cls-3" width="8.57" height="8.843" transform="translate(78.029 27.157)"/>
  </g>
</svg>